<svg version="1.2" xmlns="http://www.w3.org/2000/svg" viewBox="0 0 1563 1563" width="1563" height="1563">
&#x9;<defs>
&#x9;&#x9;<linearGradient id="g1" x2="1" gradientUnits="userSpaceOnUse" gradientTransform="matrix(323.571,0,0,248.893,591.428,622.592)">
&#x9;&#x9;&#x9;<stop offset="0" stop-color="#ffffff"></stop>
&#x9;&#x9;&#x9;<stop offset=".99" stop-color="#e5e6e7"></stop>
&#x9;&#x9;&#x9;<stop offset="1" stop-color="#e5e6e7"></stop>
&#x9;&#x9;</linearGradient>
&#x9;&#x9;<linearGradient id="g2" x2="1" gradientUnits="userSpaceOnUse" gradientTransform="matrix(333.943,0,0,558.938,616.011,775.424)">
&#x9;&#x9;&#x9;<stop offset="0" stop-color="#112c57"></stop>
&#x9;&#x9;&#x9;<stop offset=".99" stop-color="#143e86"></stop>
&#x9;&#x9;&#x9;<stop offset="1" stop-color="#143e86"></stop>
&#x9;&#x9;</linearGradient>
&#x9;</defs>
&#x9;
&#x9;<path id="Preencher com Gradiente 2" fill-rule="evenodd" class="s0" d="m598.67 498.19c0.79 0.17 1.41 0.65 1.38 1.06-0.03 0.41 2.09 2.62 4.7 4.91 2.61 2.28 8.8 7.21 13.75 10.95 4.95 3.74 14.63 11.12 21.5 16.4 6.88 5.28 17.45 13.38 23.5 17.99 6.05 4.6 15.95 12.22 22 16.92 6.05 4.71 18.77 14.52 28.26 21.82 9.5 7.29 19.95 15.28 23.22 17.76 3.28 2.48 11.04 8.41 17.24 13.2 6.2 4.78 16.23 12.53 22.28 17.22 6.05 4.69 16.17 12.46 22.5 17.26 6.33 4.8 15.83 12.13 21.13 16.28 5.3 4.15 13.85 10.8 19 14.78 5.15 3.98 19.04 14.7 30.87 23.8 11.83 9.11 26.56 20.37 32.75 25.01 6.19 4.65 11.59 9.14 12 9.99 0.41 0.84 0.3 1.99-0.25 2.54-0.63 0.65-12.32 0.99-32 0.96-17.05-0.04-34.15-0.33-38-0.66-6.36-0.53-7.57-1.02-13.19-5.23-3.4-2.56-17.33-13.65-30.95-24.65-13.62-11-25.75-20.67-26.96-21.5-1.21-0.83-5.28-4-9.05-7.06-3.77-3.06-11.5-9.13-17.19-13.5-5.69-4.37-14.12-10.86-18.73-14.44-4.61-3.58-16.07-12.58-25.46-20-9.4-7.42-18.35-14.4-19.9-15.5-1.55-1.1-12.66-9.75-24.69-19.21-12.03-9.47-26.83-21.1-32.88-25.84-6.05-4.75-13.37-10.95-16.26-13.79-3.65-3.59-6.02-7.07-7.75-11.41-1.55-3.88-2.86-9.95-3.46-16-0.54-5.36-1.29-16.22-1.67-24.14-0.38-7.91-0.34-14.8 0.09-15.3 0.43-0.51 1.43-0.78 2.22-0.62zm2.08 85.89c1.43-0.05 7.08 3.77 15.5 10.48 7.29 5.81 16.85 13.42 21.25 16.9 4.4 3.49 10.7 8.38 14 10.87 3.3 2.49 10.78 8.27 16.61 12.85 5.84 4.58 15.5 12.15 21.47 16.82 5.97 4.67 12.06 9.4 13.52 10.5 1.46 1.1 13.4 10.4 26.53 20.67 13.13 10.28 32.87 25.69 43.87 34.26 11 8.57 22.4 17.49 25.34 19.82 2.94 2.34 6.09 5.05 7 6.02 1.4 1.5 1.44 1.94 0.26 2.81-0.94 0.68-31 0.98-91 0.9-49.28-0.06-96.35-0.21-104.6-0.33-9.53-0.13-15.82-0.65-17.25-1.43-1.24-0.67-2.03-1.78-1.77-2.47 0.26-0.69 1.5-1.77 2.75-2.4 1.25-0.63 3.75-1.76 5.56-2.5 1.81-0.74 3.27-1.69 3.25-2.1-0.02-0.41 1.54-1.42 3.46-2.25 1.93-0.83 3.95-1.27 4.5-1 0.55 0.27 4.49-0.7 8.75-2.18 4.26-1.47 9.21-3.27 11-4 1.79-0.72 3.93-1.32 4.75-1.32 0.83 0 1.73-0.45 2-1 0.28-0.55 1.4-1 2.5-1 1.1 0 4.03-1.01 6.52-2.25 2.48-1.24 4.51-2.59 4.5-3-0.01-0.41 1.11-0.75 2.48-0.75 1.38 0 5.65-1.01 9.5-2.25 5.93-1.91 7-2.59 7-4.5 0-1.56-1.93-3.8-6.25-7.28-3.44-2.76-9.12-7.37-12.63-10.25-3.51-2.87-10.26-8.54-15-12.59-4.74-4.05-12.9-11.7-18.14-17-5.23-5.3-10.68-11.65-12.11-14.13-1.43-2.48-3.37-6.98-4.3-10-0.94-3.02-2.15-6.4-2.68-7.5-0.53-1.1-0.92-3.35-0.88-5 0.05-1.65-0.16-9.98-0.47-18.5-0.31-8.52-0.78-17.19-1.05-19.25q-0.48-3.74 0.76-4.17c0.69-0.23 2.26-0.46 3.5-0.5z"></path>
&#x9;<path id="Preencher com Cor Sólida 1" fill-rule="evenodd" class="s1" d="m334.5 861.98l-0.68 6.26c-0.38 3.44-3.45 15.03-6.82 25.76-3.37 10.73-11.23 35.02-17.46 54-6.23 18.98-11.6 35.96-11.93 37.75-0.34 1.79-0.5 3.34-0.36 3.46 0.14 0.11 15.87 0.45 34.97 0.75 31.3 0.49 34.89 0.71 36.5 2.29 1.71 1.69 1.64 2.3-1.54 15-1.83 7.29-4.41 15.61-5.75 18.5-1.34 2.89-3.65 6.04-5.14 7-2.48 1.6-6.6 1.75-48.75 1.75-40.62 0-46.63-0.2-51.04-1.69-3.58-1.22-6.49-3.28-15.5-12.81l-0.01-8.75c-0.01-5.34 0.73-11.67 1.89-16.25 1.05-4.13 10.95-35.06 22.01-68.75 11.06-33.69 20.82-61.92 21.68-62.75 1.31-1.24 5.52-1.5 47.93-1.52zm208.11 0.52l6.83 3.5c3.76 1.92 8.2 5.08 9.87 7 1.67 1.92 3.96 5.52 5.09 8 1.58 3.49 2.03 6.53 2.01 13.5-0.01 6.36-0.82 12.22-2.75 20-1.49 6.05-6.37 23.15-10.82 38-4.46 14.85-9.83 31.5-11.94 37-2.11 5.5-5.43 12.25-7.38 15-1.95 2.75-6.58 8.09-10.29 11.88-5.06 5.17-8.71 7.83-14.73 10.71-4.4 2.11-11.15 4.57-15 5.46-5.33 1.24-14.38 1.75-38 2.13-17.45 0.29-35.59 0.07-41.5-0.49-6.25-0.6-12.93-1.92-16.5-3.28-3.93-1.48-7.57-3.84-10.55-6.84-3.45-3.47-4.95-6.01-6.24-10.57-0.93-3.3-1.7-9.15-1.7-13-0.01-4.84 1.35-12.71 4.4-25.5 2.43-10.17 6.45-25.92 8.94-35 2.49-9.08 5.71-20.1 7.16-24.5 1.45-4.4 4.29-11.12 6.31-14.92 2.03-3.81 6.83-10.53 10.68-14.93 3.85-4.41 9.02-9.53 11.5-11.39 2.48-1.86 6.98-4.56 10-6 3.02-1.44 8.2-3.42 11.5-4.4 5.4-1.6 10.35-1.76 93.11-1.36zm58.57-0.5h24.41c20.81 0 24.48 0.22 24.91 1.5 0.27 0.83 0.49 2.51 0.48 3.75-0.01 1.24-3.95 14.15-17.48 55.12l-6.38 7.07c-3.5 3.88-7.55 8.6-9 10.48-2.01 2.63-2.59 4.49-2.51 8 0.06 2.52 1.08 7.28 4.44 16.58l-10.49 33.5c-8.06 25.76-11.01 33.93-12.77 35.38-2.14 1.76-3.73 1.85-24.29 1.29-12.1-0.32-22.35-0.94-22.78-1.38-0.43-0.43-0.27-3.94 0.36-7.79 0.63-3.85 7.35-25.9 14.94-49 7.59-23.1 18.54-57.08 24.34-75.5 5.79-18.42 10.83-34.74 11.18-36.25zm223.99 0.5l2.71 3c2.07 2.28 3.01 4.8 3.93 10.5 0.66 4.12 1.84 13.35 2.63 20.5 0.78 7.15 1.69 17.05 2.65 31l2.09-2c1.15-1.1 10.74-13.48 21.32-27.5 10.57-14.02 21.26-27.75 28.27-35.5l29.37-0.32c26.52-0.3 29.51-0.17 30.86 1.36 1.3 1.46 1.33 2.56 0.18 8.32-0.73 3.65-6.71 25.31-13.3 48.14-6.59 22.83-16.49 57.25-22.01 76.5-7.71 26.9-10.54 35.42-12.2 36.79-1.86 1.54-4.12 1.79-15.67 1.75-7.42-0.03-17.89-0.39-23.26-0.8-8.34-0.63-9.75-0.99-9.75-2.49 0.01-0.96 0.94-5.46 2.08-10 1.14-4.54 7.45-25.35 14.02-46.25 6.57-20.9 11.92-39.13 11.89-40.5-0.05-2.4-0.2-2.33-3.58 1.5-1.95 2.2-9.94 12.55-17.78 23-7.84 10.45-19.62 26.38-26.18 35.4-6.57 9.03-13.06 17.25-14.44 18.29-1.65 1.24-4.11 1.87-7.25 1.84-2.61-0.01-5.33-0.59-6.04-1.28-0.71-0.69-2.05-5.3-2.97-10.25-0.92-4.95-3.47-21.83-5.67-37.5-2.2-15.67-4.24-31.54-4.53-35.25-0.32-4.01-0.95-6.55-1.54-6.25-0.55 0.27-2.15 4.44-3.56 9.25-1.41 4.81-8.64 28.55-16.06 52.75-8.71 28.39-14.2 44.71-15.47 46-1.81 1.84-3.5 2.02-21.69 2.29-17.81 0.26-19.9 0.11-21.57-1.5-1.52-1.48-1.73-2.67-1.18-6.79 0.37-2.75 4.65-17.38 9.52-32.5 4.87-15.13 13.58-42.58 19.37-61 5.78-18.42 13.06-41.15 16.18-50.5 3.11-9.35 6.09-17.81 6.63-18.79 0.9-1.67 3.01-1.77 62-1.21zm239.58-0.4c18.43-0.08 23.92 0.2 26.5 1.36 1.79 0.81 3.93 2.68 4.75 4.17 1.3 2.34 1.47 13.07 1.28 81.78-0.18 61.64-0.51 79.71-1.5 81.92-0.71 1.56-2.18 3.04-3.28 3.3-1.1 0.27-10.65 0.34-21.22 0.17-17.66-0.28-19.39-0.46-21.24-2.3-1.74-1.72-2.12-3.91-3.54-29.51h-18c-9.9 0-22.27-0.24-37-1.05l-5.5 11.18c-3.02 6.15-6.86 13.25-11.53 20.38l-49.47 0.5-0.5-3c-0.29-1.75 0.19-4.35 1.15-6.25 0.91-1.79 5.49-9.33 10.18-16.75 4.69-7.42 16.03-25.88 25.19-41 9.16-15.13 22.87-37.85 30.46-50.5 7.6-12.65 16.56-27.01 19.92-31.91 3.35-4.9 8.13-10.68 10.6-12.85 2.48-2.17 6.19-4.8 8.25-5.84 2.06-1.05 5.44-2.3 7.5-2.8 2.06-0.49 14.21-0.94 27-1zm116.42-0.1c13.83 0 20.61 0.38 22.4 1.25 1.41 0.69 2.83 2.37 3.15 3.75 0.35 1.51-0.64 6.27-2.49 12-1.69 5.23-8.26 25.7-14.59 45.5-6.33 19.8-15.98 50.62-21.45 68.5-5.46 17.87-10.66 33.96-11.56 35.75-0.9 1.79-2.53 3.7-3.63 4.25-1.15 0.58-11.33 1-24 1-21.83 0-22.01-0.02-23.08-2.25-0.75-1.55-0.78-3.34-0.09-5.75 0.55-1.92 4.15-12.73 8.01-24 3.86-11.27 12.72-38.5 19.69-60.5 6.97-22 15.11-47.88 18.09-57.5 3.34-10.79 6.24-18.36 7.57-19.75 2.09-2.19 2.72-2.25 21.98-2.25zm123.08 0.12c27.42-0.07 44.5 0.25 45.75 0.88 1.43 0.71 2 2 2 4.5 0 1.92-1.35 8.67-3 15-1.65 6.33-3.67 13.08-4.5 15-0.82 1.92-2.72 4.29-4.2 5.25-2.41 1.56-6.65 1.8-38.75 2.25-33.6 0.47-36.3 0.64-39.78 2.5-2.32 1.24-3.95 2.95-4.3 4.5-0.3 1.37-0.19 2.73 0.25 3 0.44 0.27 2.6 1.68 4.79 3.11 2.2 1.44 13.67 6.73 25.49 11.75 15.13 6.43 22.83 10.27 26 12.97 2.48 2.11 5.97 6.04 7.77 8.75 3.16 4.75 3.27 5.27 3.24 14.92-0.01 6.51-0.73 12.97-2.06 18.5-1.12 4.67-3.81 12.21-5.99 16.75-2.55 5.31-6.05 10.48-9.81 14.5-3.71 3.97-8.36 7.59-12.75 9.93-3.79 2.02-10.5 4.61-14.9 5.75-7.64 1.99-10.15 2.07-105 1.57l0.09-6c0.06-4.05 1.35-9.91 3.96-18 2.14-6.6 4.8-12.95 5.92-14.1 1.11-1.16 3.83-2.62 6.03-3.25 2.67-0.76 16.27-1.14 41-1.14 33.18 0.01 37.26-0.17 39.5-1.69 1.38-0.94 2.83-2.18 3.23-2.76 0.41-0.58 0.75-1.62 0.75-2.31 0.01-0.69-0.99-2.17-2.23-3.31-1.24-1.13-4.27-3.18-6.75-4.56-2.47-1.38-12.6-5.85-22.5-9.94-9.9-4.09-20.9-9.35-24.45-11.69-4.04-2.67-7.68-6.11-9.78-9.25-3.16-4.71-3.35-5.49-3.3-13.5 0.02-4.67 0.52-11.42 1.11-15 0.58-3.58 1.96-9.2 3.07-12.5 1.1-3.3 3.81-9.6 6.02-14 2.2-4.4 5.43-9.76 7.17-11.9 1.74-2.15 4.96-5.13 7.16-6.62 2.2-1.5 7.38-3.93 11.5-5.42 4.13-1.48 9.98-3.06 13-3.51 3.03-0.44 25.19-0.86 49.25-0.93zm-830.75 39.52c-1.1 0.27-4.14 1.13-6.75 1.92-3.48 1.06-5.66 2.58-8.13 5.69-1.86 2.34-4.84 7.17-6.63 10.75-1.78 3.58-7.03 17.97-11.68 32-4.64 14.02-8.75 28.04-9.13 31.14-0.66 5.43-0.56 5.74 2.57 8.75 2.5 2.39 4.46 3.25 8.5 3.7 2.89 0.33 11.33 0.44 18.75 0.25 12.8-0.33 13.78-0.51 18.9-3.35 2.97-1.64 6.43-4.34 7.69-5.99 1.26-1.65 4.51-8.17 7.22-14.5 2.71-6.33 8.11-21.17 12-33 3.89-11.83 7.38-23.75 7.76-26.5 0.6-4.43 0.39-5.34-1.86-8l-2.53-3c-26.88-0.27-35.58-0.13-36.68 0.14zm570.39 9.11c-1.77 3.16-8.76 14.97-15.53 26.25-6.76 11.27-12.31 21.51-12.33 22.75l-0.03 2.25 32.5-0.5c0.43-45.69 0.16-56.5-0.43-56.5-0.52 0-2.4 2.59-4.18 5.75z"></path>
&#x9;<path id="Preencher com Gradiente 1" fill-rule="evenodd" class="s2" d="m938.14 500.75c-2.51 2.61-5.94 5.24-7.61 5.84-1.67 0.6-3.03 1.59-3.03 2.21 0 0.61-0.9 1.76-2 2.55-1.1 0.79-2.45 1.22-3 0.96-0.55-0.25-2.69 1.59-4.75 4.11-2.33 2.85-4.32 4.39-5.25 4.08-0.87-0.29-1.81 0.3-2.25 1.43-0.41 1.06-4.35 4.51-8.75 7.67-4.4 3.15-8.23 5.71-8.5 5.67-0.27-0.04-0.39 0.34-0.25 0.83 0.14 0.5-0.09 0.85-0.5 0.78-0.41-0.06-1.31-0.06-2 0-0.69 0.07-1.7 1.25-2.25 2.62-0.55 1.38-1.67 2.5-2.5 2.5-0.83 0-1.5 0.45-1.5 1 0 0.55-0.67 0.77-1.5 0.5-0.89-0.3-1.5 0.11-1.5 1 0 0.83-1.69 2.51-3.75 3.74-2.06 1.24-4.09 2.14-4.5 2-0.41-0.13-2.1 1.56-3.75 3.76-1.65 2.2-3.48 4-4.07 4-0.59 0-1.68 0.56-2.42 1.25-0.73 0.69-2.81 2.38-4.6 3.75-1.79 1.38-3.75 2.99-4.34 3.58-0.59 0.59-1.63 0.93-2.32 0.75-0.69-0.18-2.08 0.91-3.1 2.42-1.02 1.51-3.05 3.09-4.5 3.5-1.46 0.41-2.65 1.42-2.65 2.25 0 0.83-0.79 1.83-1.75 2.23-0.96 0.4-2.87 1.75-4.25 2.99-1.37 1.24-2.84 2.03-3.25 1.77-0.41-0.27-1.76 0.86-3 2.5-1.24 1.65-3.04 3-4 3-0.96 0.01-1.75 0.46-1.75 1.01 0 0.55-0.49 0.89-1.09 0.75-0.6-0.14-1.62 0.64-2.25 1.73-0.64 1.1-2.02 2.67-3.06 3.5-1.05 0.84-3.13 2.19-4.63 3.02-1.49 0.83-3.56 2.46-4.59 3.62-1.04 1.17-2.78 2.3-3.88 2.51-1.1 0.21-2.45 1.39-3 2.63-0.55 1.24-1.45 2.25-2 2.26-0.55 0.01-2.87 1.69-5.15 3.75-2.29 2.05-4.43 4.63-4.77 5.73-0.33 1.1-0.03 2.73 0.66 3.63 0.69 0.89 6.39 5.62 12.66 10.5 6.27 4.88 15.04 11.7 19.5 15.15 4.45 3.46 8.77 6.29 9.6 6.29 0.83 0.01 4.2-1.96 7.5-4.37 3.3-2.41 7.84-5.92 10.08-7.79 2.24-1.88 5.58-4.54 7.4-5.91 1.83-1.38 8.99-7.04 15.92-12.58 6.93-5.54 19.15-15.22 27.17-21.5 8.01-6.28 17.91-14.1 22-17.37 4.08-3.28 10.17-8.68 13.53-12 3.35-3.33 7.13-8.07 8.39-10.55 1.26-2.48 3.2-6.98 4.29-10 1.73-4.77 2.05-8.68 2.4-29.5 0.32-18.72 0.12-24.28-0.89-25.29-0.71-0.72-2.37-1.28-3.68-1.25-1.5 0.02-4.08 1.8-6.97 4.79zm7.25 87.42c-1.59 0.46-4.01 2-5.39 3.44-1.37 1.43-6.1 5.27-10.5 8.52-4.4 3.25-9.98 7.58-12.41 9.64-2.42 2.05-8.28 6.65-13.01 10.23-4.74 3.58-9.28 7.08-10.1 7.78-0.81 0.71-5.53 4.48-10.48 8.39-4.95 3.92-9.11 7.5-9.25 7.97-0.14 0.47-0.81 0.84-1.5 0.82-0.69-0.03-1.92 0.71-2.75 1.64-0.83 0.94-4.87 4.26-9 7.4-4.12 3.14-7.93 5.89-8.45 6.1-0.53 0.22-2.1 1.52-3.5 2.9-1.4 1.37-2.58 3.4-2.62 4.5-0.05 1.34 1.92 3.43 6 6.35 3.34 2.39 9.67 7.22 14.07 10.73 4.4 3.5 10.92 8.65 14.5 11.43 3.58 2.79 7.06 5.05 7.75 5.03 0.69-0.02 3.84-2.04 7-4.48 3.16-2.44 13.16-10.66 22.22-18.25 9.06-7.6 18.37-16.29 20.7-19.31 2.33-3.02 5.42-8.42 6.86-12 1.44-3.58 3.02-9.65 3.52-13.5 0.49-3.85 0.9-15.33 0.9-25.5 0.01-10.17-0.36-18.99-0.83-19.58-0.54-0.7-1.88-0.79-3.73-0.25zm-228.14 261.51c-11.28 0.2-18.25 0.7-18.25 1.32 0 0.55-0.67 0.77-1.5 0.5-0.83-0.27-1.5-0.05-1.5 0.5 0 0.55-1.13 1.23-2.5 1.5-1.38 0.27-2.5 1.17-2.5 2 0 0.83-2.48 3.98-5.5 7-3.02 3.02-5.5 5.84-5.5 6.25 0 0.41-1.47 2.1-3.28 3.75-1.8 1.65-4.39 4.63-5.75 6.61-1.36 1.99-4.17 5.14-6.24 7-2.08 1.87-3.77 3.73-3.75 4.14 0.01 0.41-2.03 2.89-4.52 5.5-2.5 2.61-4.78 5.42-5.06 6.25-0.28 0.83-2.47 3.08-4.86 5-2.39 1.92-4.95 4.63-5.67 6-0.73 1.38-2.51 3.63-3.96 5-1.45 1.38-3.26 3.68-4.02 5.12-0.76 1.43-4.31 5.83-7.89 9.76-3.58 3.94-6.39 7.37-6.25 7.64 0.14 0.26-0.42 1.15-1.25 1.98-0.83 0.83-1.5 2.51-1.49 3.75 0.01 1.24 1.22 7.2 2.7 13.25 1.48 6.05 3.01 11.23 3.4 11.5 0.39 0.27 0.97 2.19 1.3 4.25 0.32 2.06 1.04 3.75 1.59 3.75 0.55 0 0.77 0.9 0.5 2-0.27 1.1-0.05 2 0.5 2 0.55 0 1.27 1.69 1.59 3.75 0.32 2.06 0.94 4.2 1.37 4.75 0.43 0.55 1.4 3.37 2.16 6.26 0.76 2.9 1.72 5.26 2.13 5.25 0.41 0 0.98 1.79 1.25 3.99 0.27 2.2 0.84 4 1.25 3.99 0.41 0 1.31 2.7 2 6 0.69 3.31 1.7 6.01 2.25 6.01 0.55 0 1.23 1.8 1.5 4 0.27 2.2 0.95 4 1.5 4 0.55 0 1.32 2.14 1.71 4.75 0.39 2.61 1.29 5.31 2 6 0.71 0.69 1.29 2.15 1.29 3.25 0 1.1 0.67 2.67 1.5 3.5 0.83 0.83 1.5 1.95 1.5 2.5 0 0.55 0.67 1 1.5 1 0.83 0 1.65 0.56 1.83 1.25 0.26 0.95 6.98 1.32 28.25 1.56 15.36 0.17 29.38 0.06 31.17-0.25 3.16-0.54 3.25-0.7 3.25-5.56 0-2.75-0.45-5-1-5-0.55 0-1.28-1.69-1.61-3.75-0.34-2.06-1.21-4.65-1.93-5.75-0.72-1.1-1.57-3.69-1.89-5.75-0.31-2.06-1.02-3.75-1.57-3.75-0.55 0-1.34-1.81-1.75-4.02-0.41-2.21-0.98-4-1.25-3.98-0.27 0.02-1.06-2.45-1.75-5.48-0.69-3.04-1.7-5.52-2.25-5.52-0.55 0-1.23-1.58-1.5-3.5-0.27-1.92-0.84-3.49-1.25-3.48-0.41 0.01-1.31-2.47-2-5.5-0.69-3.04-1.7-5.52-2.25-5.52-0.55 0-1.23-1.8-1.5-4-0.27-2.2-0.95-4-1.5-4-0.55 0-1.56-2.7-2.25-6.01-0.69-3.3-1.59-6-2-6-0.41 0.01-0.98-1.57-1.25-3.49-0.27-1.92-0.95-3.5-1.5-3.5-0.55 0-1.23-1.58-1.5-3.5-0.27-1.92-0.95-3.5-1.5-3.5-0.55 0-0.77-0.67-0.5-1.5 0.27-0.83 0.05-1.5-0.5-1.5-0.55 0-1-0.45-1-1 0-0.55 3.26-4.35 7.25-8.43 3.99-4.09 10.77-11.18 15.08-15.75 4.31-4.58 8.34-9.22 8.97-10.32 0.62-1.1 4.64-5.37 8.92-9.5 4.28-4.12 7.8-7.95 7.82-8.5 0.03-0.55 2.63-3.48 5.8-6.5 3.16-3.02 6.63-6.97 7.7-8.76 1.08-1.8 2.19-3.25 2.46-3.22 0.27 0.02 2.41-1.77 4.75-3.99 2.34-2.22 4.24-4.59 4.22-5.28-0.01-0.69 1.56-2.6 3.51-4.25 1.94-1.65 3.52-3.56 3.52-4.25 0-0.69 0.45-1.25 1-1.25 0.55 0 1.02-1.69 1.04-3.75 0.03-2.32-0.6-4.32-1.65-5.25-1.29-1.14-4.5-1.52-13.3-1.57-6.37-0.05-19.8 0.07-29.84 0.25z"></path>
</svg>