<svg version="1.2" xmlns="http://www.w3.org/2000/svg" viewBox="0 0 1257 792" width="1257" height="792">
&#x9;<defs>
&#x9;&#x9;<linearGradient id="g1" x2="1" gradientUnits="userSpaceOnUse" gradientTransform="matrix(334.932,0,0,261.892,441.806,222.078)">
&#x9;&#x9;&#x9;<stop offset="0" stop-color="#e1e1e1"></stop>
&#x9;&#x9;&#x9;<stop offset="1" stop-color="#ffffff"></stop>
&#x9;&#x9;</linearGradient>
&#x9;&#x9;<linearGradient id="g2" x2="1" gradientUnits="userSpaceOnUse" gradientTransform="matrix(355.823,0,0,558.821,460.988,350.443)">
&#x9;&#x9;&#x9;<stop offset="0" stop-color="#ce6407"></stop>
&#x9;&#x9;&#x9;<stop offset="1" stop-color="#fb970a"></stop>
&#x9;&#x9;</linearGradient>
&#x9;</defs>
&#x9;
&#x9;<path id="Preencher com Gradiente 2" fill-rule="evenodd" class="s0" d="m446 91.13c0.83-0.02 5.65 3.21 10.72 7.17 5.07 3.96 8.9 7.58 8.5 8.03-0.39 0.46-0.24 0.69 0.34 0.5 0.58-0.18 2.71 0.8 4.74 2.17 2.03 1.38 3.68 3.17 3.67 4-0.02 0.83 0.32 1.18 0.75 0.78 0.43-0.39 2.68 0.73 5 2.5 2.32 1.77 3.9 3.67 3.51 4.22-0.42 0.6-0.21 0.7 0.53 0.25 0.69-0.42 1.91-0.08 2.74 0.75 0.83 0.83 1.16 1.8 0.75 2.16-0.41 0.36-0.19 0.36 0.5 0 0.69-0.36 1.47 0.01 1.75 0.84 0.27 0.83 0.95 1.27 1.5 1 0.55-0.27 1.23 0.17 1.5 1 0.27 0.83 0.95 1.27 1.5 1 0.55-0.27 1.23 0.4 1.5 1.5 0.27 1.1 0.95 1.77 1.5 1.5 0.55-0.27 2.11 0.29 3.47 1.25 1.36 0.96 2.48 2.31 2.5 3 0.02 0.69 0.48 1.02 1.03 0.75 0.55-0.27 2.28 0.74 3.84 2.25 1.56 1.51 3.25 2.83 3.75 2.93 0.5 0.09 1.22 0.99 1.59 2 0.37 1 0.71 1.26 0.75 0.57 0.04-0.77 1.08-0.39 2.69 1 1.45 1.24 3.7 3.26 5 4.5 1.31 1.24 2.6 1.91 2.87 1.5 0.27-0.41 0.72 0.04 1 1 0.28 0.96 0.85 1.55 1.26 1.3 0.41-0.25 2.87 1.43 5.47 3.75 2.59 2.31 4.75 3.97 4.78 3.7 0.04-0.27 0.84 0.49 1.78 1.71 0.95 1.21 1.95 2 2.22 1.75 0.27-0.25 2.52 1.43 5 3.73 2.48 2.3 4.85 4.22 5.27 4.25 0.42 0.03 4.14 2.65 8.25 5.81 4.11 3.16 7.47 6.31 7.45 7-0.01 0.69 0.32 0.93 0.75 0.53 0.43-0.39 2.68 0.73 5 2.5 2.32 1.77 3.9 3.67 3.5 4.21-0.43 0.59-0.21 0.69 0.53 0.25 0.74-0.44 1.76 0.02 2.5 1.13 0.69 1.02 1.51 1.81 1.82 1.75 0.32-0.07 2.23 1.01 4.25 2.38 2.01 1.38 3.67 3.06 3.67 3.75 0.01 0.69 0.46 1.02 1.01 0.75 0.55-0.27 1.68 0.51 2.52 1.75 0.83 1.24 1.85 2.13 2.25 1.99 0.4-0.15 2.93 1.42 5.62 3.5 2.69 2.07 5.51 4.66 6.27 5.76 0.76 1.1 1.52 1.77 1.68 1.5 0.17-0.27 1.96 0.63 3.98 2 2.01 1.38 3.66 3.17 3.65 4-0.02 0.83 0.32 1.17 0.75 0.78 0.43-0.4 1.57-0.29 2.53 0.25 0.96 0.53 1.52 1.42 1.25 1.97-0.27 0.55-0.11 0.89 0.36 0.75 0.48-0.14 3.61 1.77 6.97 4.25 3.37 2.48 5.79 4.94 5.39 5.49-0.43 0.59-0.21 0.69 0.53 0.25 0.76-0.45 1.84 0.14 2.76 1.51 0.83 1.24 1.5 1.91 1.5 1.5-0.01-0.41 2.07 0.71 4.61 2.5 2.54 1.79 5.69 4.49 7 6 1.31 1.51 2.39 2.41 2.41 2 0.02-0.41 0.69 0.04 1.5 1 0.81 0.96 1.58 1.68 1.72 1.59 0.14-0.1 1.26 0.47 2.5 1.25 1.24 0.77 2.24 2.08 2.23 2.91-0.02 0.83 0.31 1.17 0.74 0.78 0.43-0.4 1.57-0.29 2.53 0.25 0.96 0.53 1.52 1.42 1.25 1.97-0.27 0.55-0.16 0.93 0.25 0.84 0.41-0.09 1.54 0.14 2.5 0.5 1 0.38 1.47 1.2 1.09 1.91-0.36 0.69-0.25 0.93 0.25 0.53 0.5-0.39 2.88 0.73 5.28 2.5 2.4 1.77 5.26 4.35 6.34 5.72 1.08 1.38 2.27 2.54 2.63 2.59 0.36 0.04 1.45 0.38 2.41 0.75 1.06 0.4 1.46 1.15 1 1.9-0.45 0.74-0.34 0.96 0.25 0.55 0.55-0.38 3.59 1.32 6.75 3.76 3.16 2.45 5.75 4.9 5.75 5.45 0 0.55 0.45 0.77 1 0.5 0.55-0.27 1.68 0.51 2.51 1.75 0.83 1.24 1.5 1.91 1.5 1.5-0.01-0.41 1.57 0.38 3.49 1.75 2.23 1.59 3.23 2.95 2.76 3.75q-0.73 1.24 0.5 0.5c0.75-0.46 2.51 0.48 4.49 2.38 1.79 1.73 3.48 3.14 3.75 3.15 0.27 0 1.51 0.61 2.75 1.36 1.24 0.75 2.25 2.03 2.25 2.86 0 0.89 0.61 1.3 1.5 1 0.92-0.31 1.69 0.27 2 1.5 0.27 1.1 0.89 1.89 1.36 1.75 0.47-0.14 2.94 1.21 5.5 3 2.55 1.79 4.41 3.7 4.14 4.25-0.27 0.55-0.16 0.95 0.25 0.88 0.41-0.06 1.31-0.06 2 0 0.69 0.07 1.25 0.79 1.25 1.62 0 0.83 0.34 1.3 0.75 1.06 0.41-0.23 4.58 2.52 9.25 6.12 4.67 3.6 8.39 6.94 8.25 7.43-0.14 0.49 0.2 0.66 0.75 0.39 0.55-0.27 1.68 0.51 2.51 1.75 0.83 1.24 1.5 1.91 1.5 1.5-0.01-0.41 2 0.71 4.46 2.5 2.46 1.79 4.15 3.7 3.76 4.25-0.42 0.6-0.21 0.7 0.53 0.25 0.68-0.41 1.56-0.19 1.96 0.5 0.4 0.69 0.85 2.04 1 3 0.15 0.96-0.73 2.43-1.97 3.26-1.91 1.28-8.33 1.51-42.75 1.51-28.05 0.01-41.58-0.34-44-1.15-1.92-0.63-5.75-2.74-8.5-4.68-2.75-1.95-10.85-8.52-18.01-14.61-7.16-6.09-15.68-13.33-18.95-16.08-3.27-2.75-6.19-5.02-6.49-5.04-0.3-0.02-2.38-1.82-4.62-4-2.24-2.18-6.73-6.21-9.96-8.96-3.24-2.75-11.78-9.95-18.99-16-7.2-6.05-36.92-31.25-66.04-56-29.12-24.75-56.96-48.37-61.87-52.5-4.91-4.12-11.38-9.75-14.37-12.5-2.99-2.75-7.2-7.7-9.37-11-2.16-3.3-4.9-8.48-6.09-11.5-1.85-4.73-2.23-8.23-2.7-25-0.46-16.46-0.31-19.76 0.96-21.17 0.83-0.91 2.17-1.68 3-1.7zm-0.8 84.87c0.44 0 0.8 0.45 0.8 1 0 0.55 0.42 0.89 0.93 0.75 0.52-0.14 4.36 2.45 8.54 5.75 4.19 3.3 7.59 6.56 7.57 7.25-0.02 0.69 0.35 1.14 0.83 1 0.48-0.14 6.29 4.02 12.91 9.25 6.63 5.23 12.32 10.29 12.64 11.25 0.32 0.96 0.92 1.55 1.33 1.31 0.41-0.24 2.44 1.11 4.5 3 2.06 1.89 4.09 3.43 4.5 3.41 0.41-0.02 1.54 0.77 2.5 1.75 0.97 0.98 1.42 2.19 1 2.69-0.42 0.51-0.19 0.62 0.5 0.25 0.73-0.39 2.1 0.48 3.28 2.09 1.12 1.51 2.04 2.3 2.04 1.75 0-0.55 0.93 0.13 2.08 1.5 1.14 1.38 2.36 2.51 2.71 2.51 0.35 0.01 2.11 1.14 3.91 2.5 1.8 1.37 3.26 3.05 3.25 3.74-0.01 0.69 0.32 1.03 0.73 0.76 0.41-0.26 1.99 0.64 3.5 2 1.51 1.37 2.41 2.79 2 3.15-0.41 0.36-0.19 0.36 0.5 0 0.73-0.39 2.18 0.56 3.5 2.3 1.24 1.63 2.59 2.76 3 2.5 0.41-0.25 1.43 0.55 2.26 1.79 0.83 1.24 1.49 1.8 1.47 1.25-0.03-0.55 0.86-0.1 1.97 1 1.11 1.1 1.68 2.45 1.28 2.99-0.44 0.59-0.23 0.69 0.52 0.25 0.77-0.46 3.26 1.02 6.5 3.85 2.89 2.53 6.26 5.79 7.5 7.25 1.23 1.46 2.23 2.21 2.21 1.66-0.01-0.55 0.88-0.1 1.99 1 1.11 1.1 1.8 2.34 1.53 2.75-0.26 0.41 0.19 0.52 1.02 0.25 0.92-0.31 1.69 0.27 2 1.5 0.27 1.1 0.95 1.77 1.5 1.5 0.55-0.27 3.02 1.52 5.5 4 2.48 2.48 4.5 4.27 4.5 4 0-0.27 2.36 1.41 5.25 3.75 2.89 2.33 5.81 4.81 6.5 5.5 0.69 0.69 1.25 1.7 1.25 2.25 0 0.55 0.34 0.8 0.75 0.56 0.41-0.25 3.33 1.89 6.48 4.75 3.15 2.85 5.72 4.96 5.72 4.69-0.01-0.27 0.89 0.4 2 1.5 1.11 1.1 1.69 2.45 1.29 3-0.4 0.55-0.28 0.69 0.27 0.3 0.54-0.38 2.34 0.42 3.99 1.78 1.65 1.37 3.34 2.47 3.75 2.45 0.41-0.02 1.42 1.32 2.25 2.97 0.83 1.65 1.95 2.77 2.5 2.5 0.55-0.27 1.79 0.64 2.75 2.03 0.96 1.38 1.98 2.29 2.25 2 0.27-0.28 1.06-0.07 1.75 0.48 0.69 0.54 0.92 1.55 0.51 2.24q-0.73 1.24 0.5 0.5c0.73-0.44 2.48 0.28 4.24 1.75 1.65 1.38 2.89 3 2.75 3.62-0.14 0.61 0.65 1.29 1.75 1.5 1.1 0.21 4.02 2.27 6.5 4.58 2.48 2.3 5.4 5.14 6.5 6.31 1.1 1.17 1.81 2.77 1.59 3.56-0.23 0.79-1.13 1.98-2 2.65-1.22 0.94-24.08 1.22-99.34 1.25-63.23 0.02-98.46-0.32-99.75-0.97-1.1-0.55-2.45-1.9-3-3-0.74-1.48-0.61-2.39 0.5-3.5 0.83-0.83 1.51-1.16 1.53-0.75 0.02 0.41 0.58-0.04 1.25-1.01 0.67-0.96 2.72-1.86 4.56-2 1.84-0.13 3.64-0.84 4-1.58 0.36-0.74 1.11-1.35 1.66-1.37 0.55-0.02 2.01-0.43 3.25-0.91 1.24-0.48 2.7-0.65 3.25-0.38 0.55 0.27 1.11 0.05 1.25-0.51 0.14-0.55 1.38-1.28 2.75-1.62 1.38-0.34 3.51-0.56 4.75-0.49 1.31 0.07 2.15-0.4 2-1.13-0.14-0.69 0.42-1.26 1.25-1.28 0.83-0.01 2.06-0.35 2.75-0.75 0.69-0.39 1.7-0.49 2.25-0.22 0.55 0.27 1 0.05 1-0.5 0-0.55 0.45-0.77 1-0.5 0.55 0.27 0.99 0.16 0.98-0.25-0.02-0.41 1.45-1.16 3.25-1.66 1.8-0.51 4.07-0.96 5.05-1 0.98-0.05 2.11-0.54 2.5-1.09 0.4-0.55 1.39-1.18 2.22-1.41 0.83-0.22 2.63-0.53 4-0.67 1.38-0.14 2.73-0.35 3-0.46 0.27-0.11 0.84-0.14 1.25-0.08 0.41 0.07 0.74-0.22 0.73-0.63-0.01-0.41 1.68-1.49 3.75-2.39 2.07-0.9 5.12-2 6.77-2.44 1.65-0.44 3.89-0.83 4.98-0.86 1.09-0.03 2.07-0.73 2.18-1.56 0.11-0.83-4.39-5.5-9.98-10.4-5.6-4.89-20.05-17.94-32.1-29-12.06-11.05-24.27-23.02-27.13-26.6-2.86-3.58-6-8.08-6.97-10-0.98-1.92-2.84-6.65-4.14-10.5-2.19-6.49-2.36-8.54-2.35-28.25 0.01-14.73 0.38-21.86 1.21-23.25 0.66-1.1 1.56-2 2-2z"></path>
&#x9;<path id="Preencher com Cor Sólida 1" fill-rule="evenodd" class="s1" d="m345.5 438.79c20.35 0.17 39.25 0.75 42 1.28 2.75 0.53 7.48 2.44 10.5 4.24 3.53 2.1 6.68 5.05 8.81 8.23 1.81 2.73 3.78 6.76 4.36 8.96 0.62 2.32 0.83 8 0.5 13.5-0.36 6.15-1.8 14.09-4.06 22.5-1.92 7.15-6.85 24.03-10.96 37.5-4.11 13.47-8.91 28.1-10.67 32.5-1.76 4.4-4.65 10.25-6.43 13-1.79 2.75-6.35 8.19-10.15 12.08-5.35 5.49-8.81 8-15.4 11.19-5.13 2.48-11.68 4.7-16.5 5.6-5.35 1-17.78 1.68-37.5 2.05-16.23 0.31-34.23 0.15-40-0.36-5.78-0.51-12.97-1.83-16-2.94-3.02-1.11-7.67-3.95-10.33-6.32-3.39-3.03-5.43-5.93-6.89-9.8-1.55-4.14-2.06-7.84-2.05-15 0-8.5 0.74-12.4 7.05-37 3.88-15.13 8.68-32.9 10.66-39.5 1.98-6.6 5.59-16.05 8.02-21 3-6.12 6.7-11.56 11.58-17 3.94-4.4 9.71-9.9 12.81-12.21 3.11-2.32 9.02-5.56 13.15-7.19 4.12-1.63 10.43-3.34 14-3.8 3.57-0.45 23.15-0.68 43.5-0.51zm316.5-0.1c3.58 0.2 7.6 0.91 8.95 1.58 1.35 0.68 3.22 2.58 4.16 4.23 1.09 1.9 2.5 9.25 3.86 20 1.18 9.35 2.41 22.4 3.32 41l2.92-3.5c1.61-1.92 7.5-9.58 13.09-17 5.59-7.42 15.12-19.96 21.18-27.86 6.06-7.9 12.37-15.21 14.02-16.23 2.77-1.72 5.21-1.85 61-1.41l-0.1 6.5c-0.08 5.25-3.22 17.25-16.37 62.5-8.94 30.8-18.98 65.67-22.3 77.5-3.32 11.83-6.76 22.3-7.64 23.28-1.44 1.62-3.75 1.78-24.59 1.74-12.65-0.03-23.54-0.38-24.2-0.79-0.91-0.56-0.84-2.36 0.33-7.73 0.84-3.85 7.1-24.78 13.92-46.5 6.81-21.72 12.7-41.08 13.74-46.5l-2.76 2.5c-1.52 1.37-6.44 7.22-10.92 13-4.49 5.78-14.93 19.72-23.19 31-8.27 11.28-16.92 23.31-19.22 26.75-2.42 3.6-5.58 6.94-7.45 7.88-2.26 1.13-4.62 1.44-7.75 1.04-2.48-0.32-4.81-0.94-5.18-1.37-0.37-0.44-1.39-4.4-2.27-8.8-0.87-4.4-3.38-20.38-5.58-35.5-2.2-15.13-4.33-31.44-4.74-36.26-0.4-4.81-1.07-8.75-1.48-8.75-0.41 0.01-2.3 5.07-4.18 11.26-1.89 6.19-8.67 28.35-15.06 49.25-6.4 20.9-12.26 40.03-13.02 42.5-1.01 3.24-2.18 4.86-4.19 5.77-2.04 0.92-8.26 1.2-42.8 0.73l0.15-6.5c0.12-5.22 2.03-12.31 9.68-36 5.24-16.22 12.96-40.53 17.15-54 4.2-13.47 11.18-35.3 15.53-48.5 4.34-13.2 8.48-24.54 9.19-25.21 0.91-0.84 8.08-1.31 23.8-1.58 12.38-0.2 25.42-0.21 29-0.02zm264.25-0.5c0.96-0.11 3.89 0.26 6.5 0.8 2.84 0.6 5.76 2.04 9.75 6.17l0.31 68.17c0.18 37.49 0.03 74.02-0.33 81.17-0.45 8.93-1.11 13.63-2.11 15-1.38 1.89-2.61 2-22.38 2-18.74 0-21.1-0.19-22.7-1.78-1.48-1.48-1.88-4.09-2.29-15.16-0.28-7.36-0.72-13.59-1-13.84-0.28-0.25-12.65-0.78-54.5-1.87l-2.31 4.83c-1.28 2.65-5.1 9.67-8.5 15.6-5.36 9.33-6.59 10.85-9.19 11.29-1.65 0.28-12.9 0.38-47-0.07l-0.25-3.75c-0.21-3.22 1.14-5.97 9.61-19.5 5.42-8.66 18.62-30.15 29.32-47.75 10.7-17.6 23.42-38.75 28.28-47 4.85-8.25 12.51-20.63 17.02-27.5 4.93-7.51 10.17-14.17 13.11-16.67 2.7-2.29 7.16-5.21 9.91-6.48 4.56-2.11 6.87-2.36 26-2.89 11.55-0.32 21.79-0.67 22.75-0.77zm101.75 0.52c10.17 0.32 19.51 0.96 20.75 1.43 1.24 0.47 2.64 1.87 3.12 3.11 0.56 1.45 0.36 4.02-0.58 7.25-0.79 2.75-7.68 24.58-15.31 48.5-7.63 23.92-17.73 56.1-22.44 71.5-4.72 15.4-9.24 29.91-10.06 32.25-0.81 2.34-2.72 5.17-4.23 6.28-2.57 1.9-4.18 2.04-24.25 2.02-16-0.01-21.82-0.34-22.77-1.28-0.69-0.7-1.26-2.51-1.25-4.02 0.01-1.51 2.96-11.19 6.56-21.5 3.6-10.31 13.24-39.9 21.42-65.75 8.19-25.85 16.92-53.53 19.41-61.5 2.49-7.97 5.34-15.23 6.33-16.12 0.99-0.89 2.47-1.87 3.3-2.18 0.83-0.31 9.83-0.31 20 0.01zm108.5-0.16c13.2 0.25 31.65 0.44 41 0.43 13.07-0.01 17.46 0.31 19 1.4 1.96 1.39 1.97 1.56 0.3 9.77-0.94 4.59-2.9 12.18-4.35 16.85-1.46 4.67-3.4 9.33-4.3 10.35-0.91 1.02-2.55 2.37-3.65 3-1.36 0.78-13.57 1.31-38 1.65-33.99 0.47-36.2 0.61-39.5 2.55-2.45 1.43-3.58 2.86-3.75 4.75-0.2 2.15 0.52 3.21 3.5 5.18 2.06 1.37 12.75 6.24 23.75 10.84 11 4.59 21.46 9.09 23.25 10.01 1.79 0.92 5.32 3.81 7.84 6.42 2.52 2.61 5.76 6.78 7.18 9.25 2.48 4.3 2.57 4.96 1.97 15-0.4 6.79-1.55 13.68-3.25 19.5-1.45 4.95-4.06 11.7-5.81 14.99-1.75 3.3-6.16 9.15-9.8 13-4.61 4.88-8.56 7.95-13 10.11-3.51 1.71-9.53 3.96-13.38 5-6.43 1.74-11.01 1.9-105 1.9l-0.32-5.5c-0.24-4.28 0.59-8.33 3.75-18.25 2.24-7.01 4.86-13.5 5.82-14.41 0.96-0.92 3.21-2.27 5-3 2.51-1.04 11.71-1.34 40.5-1.34 33.46 0 37.61-0.18 40.75-1.75 2.68-1.34 3.57-2.45 3.78-4.75 0.18-1.98-0.33-3.42-1.5-4.24-0.98-0.68-4.03-2.53-6.78-4.11-2.75-1.58-10.85-5.23-18-8.1-7.15-2.87-16.6-6.89-21-8.94-4.4-2.04-9.96-5.49-12.35-7.66-2.4-2.17-5.32-5.53-6.5-7.45-1.87-3.04-2.13-4.88-2.03-14 0.07-5.94 0.86-13.54 1.81-17.5 0.92-3.85 3.04-10.38 4.7-14.5 1.66-4.13 4.67-10.19 6.69-13.48 2.03-3.29 5.26-7.5 7.18-9.35 1.92-1.86 5.97-4.62 9-6.13 3.03-1.51 8.42-3.51 12-4.45 3.58-0.94 9.42-2.1 13-2.6 3.58-0.49 17.3-0.69 30.5-0.44zm-980.25 0.47c17.24-0.02 22.89 0.28 23.32 1.23 0.31 0.69 0.04 3.95-0.6 7.25-0.65 3.3-4.09 15.45-7.66 27-3.57 11.55-11.39 35.85-17.38 54-5.99 18.15-10.91 34.01-10.91 35.25-0.02 1.64 0.59 2.28 2.23 2.36 1.24 0.07 16.97 0.4 34.97 0.75 27.11 0.53 32.98 0.9 34.26 2.14 1.39 1.35 1.21 2.84-1.83 15-1.86 7.42-4.45 15.92-5.76 18.89-1.44 3.24-3.38 5.87-4.89 6.62-1.81 0.89-14.83 1.42-47 1.9-38.38 0.57-45.26 0.45-50-0.88-3.02-0.85-6.85-2.49-8.5-3.66-1.65-1.17-4.48-3.98-6.28-6.25-2.12-2.66-3.5-5.71-3.91-8.62-0.34-2.47-0.15-7.88 0.44-12 0.65-4.55 7.24-26.39 16.75-55.5 8.62-26.4 18.38-56.07 21.67-65.94 3.3-9.87 6.52-18.3 7.16-18.73 0.64-0.44 11.41-0.81 23.92-0.81zm290.88-0.02h48.87v4c0 2.25-3.35 14.39-7.66 27.75-7.5 23.28-7.75 23.86-12.75 29.2-2.8 3-6.95 7.27-9.22 9.5-2.27 2.23-4.9 5.85-5.84 8.05-1.68 3.95-1.66 4.14 4.75 25l-10.22 32.5c-5.63 17.87-10.98 33.31-11.9 34.29-1.52 1.65-3.6 1.77-47.66 1.21l0.16-6c0.13-4.76 3.47-16.11 16.16-55 8.8-26.95 19.44-60.03 23.64-73.5 4.21-13.47 8.55-27.31 9.66-30.75zm-123.63 39.03c-3.85 0.38-9.03 1.58-11.5 2.66-2.48 1.09-6.04 3.74-7.92 5.89-1.88 2.16-4.93 7.07-6.77 10.92-1.84 3.85-7.13 18.47-11.76 32.5-4.63 14.03-8.67 27.64-8.98 30.25-0.51 4.22-0.26 5.07 2.18 7.62 1.51 1.58 4.77 3.43 7.25 4.12 3.05 0.84 9.02 1.09 18.5 0.77 11.95-0.4 14.79-0.82 19.42-2.86 2.98-1.32 6.81-4.02 8.5-6 1.69-1.98 5.28-8.73 7.98-15 2.69-6.27 8.04-20.85 11.88-32.4 3.84-11.55 7.21-23.47 7.49-26.5 0.29-3.19 0.03-6.45-0.63-7.75-0.63-1.24-2.38-2.74-3.89-3.33-1.51-0.6-7.7-1.19-13.75-1.33-6.05-0.13-14.15 0.07-18 0.44zm566.61 8.22c-1.29 2.34-8.37 14.37-15.74 26.75-8.43 14.15-13.22 23.15-12.89 24.25 0.47 1.57 2.1 1.75 15.52 1.75 8.25 0 15.67-0.22 16.5-0.5 1.29-0.43 1.5-4.5 1.5-28.5 0-22.06-0.27-28-1.28-28-0.7 0-2.33 1.91-3.61 4.25z"></path>
&#x9;<path id="Preencher com Gradiente 1" fill-rule="evenodd" class="s2" d="m810 72c0 0.55-0.67 1-1.5 1-0.83 0-1.5 0.45-1.5 1 0 0.55-0.34 0.9-0.75 0.78-0.41-0.12-1.99 0.55-3.5 1.5-1.51 0.94-2.52 2.17-2.25 2.72 0.27 0.55 0.05 1-0.5 1-0.55 0-1.9 0.9-3 2-1.1 1.1-2.45 1.77-3 1.5-0.55-0.27-1.23 0.4-1.5 1.5-0.28 1.13-1.05 1.76-1.75 1.45-0.69-0.3-1.51 0.27-1.82 1.25-0.32 0.99-2.01 2.14-3.75 2.55-1.75 0.41-2.95 1.2-2.68 1.75 0.27 0.55-0.62 1.45-2 2-1.37 0.55-2.5 1.45-2.5 2 0 0.55-0.67 1-1.5 1-0.83 0-1.75 0.79-2.05 1.75-0.48 1.51-0.68 1.54-1.49 0.25q-0.93-1.49-0.94-0.25c-0.01 0.69-0.92 2.15-2.02 3.25-1.1 1.1-2 1.55-2 1 0-0.55-1.15-0.21-2.56 0.75-1.89 1.29-2.22 1.94-1.25 2.48q1.29 0.74-0.94 0.75c-1.24 0.01-2.7 0.92-3.25 2.02-0.55 1.1-1.34 1.78-1.75 1.5-0.41-0.27-1.31 0.4-2 1.5-0.69 1.1-1.92 2-2.75 2-0.83 0-1.94 0.79-2.47 1.75-0.53 0.96-0.98 1.19-1 0.5-0.02-0.69-0.48-1.02-1.03-0.75-0.55 0.27-0.77 0.95-0.5 1.5 0.27 0.55-1.08 1.9-3 3-1.92 1.1-3.5 2.45-3.5 3 0 0.55-0.34 0.91-0.75 0.8-0.41-0.11-1.87 0.16-3.25 0.6-2.02 0.64-2.21 0.97-1 1.68 1.27 0.75 1.23 0.89-0.25 0.9-0.96 0.01-2.54 0.92-3.5 2.03-0.96 1.1-2.09 2-2.5 2-0.41-0.01-1.47 0.55-2.34 1.24-0.88 0.69-2.7 2.38-4.04 3.75-1.34 1.38-2.42 2.16-2.4 1.75 0.01-0.41-1.43 0.57-3.22 2.18-1.79 1.61-3.81 2.74-4.5 2.5-0.69-0.24-1.81 0.71-2.5 2.11-0.69 1.4-2.04 2.75-3 3-0.96 0.25-1.75 0.91-1.75 1.46 0 0.55-0.45 0.77-1 0.5-0.55-0.27-1-0.05-1 0.5 0 0.55-0.34 0.89-0.75 0.77-0.41-0.13-1.92 0.88-3.36 2.25-1.43 1.36-4.13 3.76-6 5.32-1.86 1.57-4.42 3.37-5.67 4-1.25 0.64-2.26 1.5-2.25 1.91 0.02 0.41-0.64 0.52-1.47 0.25-0.92-0.31-1.69 0.27-2 1.5-0.31 1.23-1.08 1.81-2 1.5-0.89-0.3-1.5 0.11-1.5 1 0 0.83-0.9 1.95-2 2.5-1.1 0.55-2.01 0.66-2.03 0.25-0.02-0.41-0.58-0.03-1.25 0.85-0.67 0.88-2.23 1.9-3.47 2.25-1.42 0.41-2.07 1.2-1.75 2.15 0.32 0.95-0.14 1.5-1.25 1.5-0.96-0.01-2.31 0.89-3 2-0.69 1.1-1.48 1.77-1.75 1.5-0.27-0.27-1.51 0.41-2.75 1.52-1.24 1.11-2.81 2.01-3.5 2-0.69-0.01-1.24 0.54-1.23 1.23 0.01 0.69-1.45 2.35-3.25 3.69-1.8 1.34-3.84 2.46-4.53 2.5-0.7 0.03-1.48 0.85-1.75 1.81-0.27 0.96-1.2 1.75-2.06 1.75-0.87 0-2.22 0.67-3 1.5-0.87 0.91-1.22 2.59-0.91 4.25 0.34 1.77 2.5 4.35 6.08 7.25 3.06 2.48 8.56 6.99 12.23 10.03 3.67 3.04 9.55 7.54 13.07 10 3.51 2.46 8.24 5.5 10.5 6.77 3.27 1.83 4.55 2.08 6.35 1.25 1.24-0.58 5.06-3.43 8.5-6.35 3.44-2.91 13.34-11.01 22-18 8.66-6.98 16.76-13.56 18-14.61 1.24-1.05 13.04-10.61 26.24-21.25 13.19-10.64 27.06-22.26 30.81-25.84 3.75-3.58 8.02-8.3 9.5-10.5 1.48-2.2 3.47-4.67 4.42-5.5 0.96-0.83 1.52-1.73 1.24-2-0.28-0.27 0.06-1.75 0.76-3.28 0.71-1.53 1.51-2.77 1.78-2.77 0.27 0.01 0.39-1.11 0.25-2.47q-0.25-2.48 1.25-2.48c1.17 0 1.28-0.44 0.5-2-0.55-1.1-0.66-2-0.25-2 0.41 0 0.9-3.93 1.09-8.75 0.18-4.81 0.79-9.65 1.36-10.75 0.63-1.23 0.79-6.13 0.41-12.75-0.54-9.48-0.88-10.98-2.86-12.72-1.24-1.08-2.59-1.98-3-2-0.41-0.02-0.75 0.42-0.75 0.97zm-2.8 95c-0.66 1.1-1.65 1.77-2.2 1.5-0.55-0.27-1.23 0.4-1.5 1.5-0.36 1.45-0.98 1.8-2.25 1.27-1.06-0.44-1.5-0.34-1.13 0.25 0.34 0.54-0.25 1.88-1.31 2.98l-1.94 2c1.4-3.72 1.3-3.81 0.07-2.63-0.79 0.76-1.55 1.99-1.69 2.75-0.14 0.76-1.04 1.69-2 2.06-0.96 0.38-3.21 2.18-5 4-1.79 1.83-3.7 3.09-4.25 2.82-0.55-0.27-1.23 0.4-1.5 1.5-0.28 1.13-1.04 1.76-1.75 1.44-0.69-0.3-1.77 0.03-2.41 0.75-0.65 0.72-1.21 1.76-1.25 2.31-0.05 0.55-0.44 1-0.86 1-0.43 0-1.58 0.67-2.56 1.5-0.98 0.83-3.31 2.96-5.19 4.75-1.88 1.79-4.1 3.25-4.95 3.25-0.84 0-1.76 0.9-2.03 2-0.27 1.1-1.17 2-2 2-0.83 0-1.73 0.67-2 1.5-0.27 0.83-1.29 1.49-2.25 1.47-0.96-0.01-1.41 0.32-1 0.75 0.41 0.43-0.27 1.45-1.5 2.27-1.24 0.82-2.59 1.39-3 1.25-0.41-0.13-0.75 0.43-0.75 1.26 0 0.83-0.89 1.5-2 1.5-1.1 0-2.45 0.9-3 2-0.55 1.1-1.79 2.01-2.75 2.02-1.5 0.01-1.53 0.15-0.25 0.98 1.33 0.86 1.33 0.98 0 1.1-0.83 0.08-1.84 0.08-2.25 0.02-0.41-0.07-0.75 0.55-0.75 1.38 0 0.83-0.45 1.5-1 1.5-0.55 0-1.91 1.01-3.02 2.25-1.11 1.24-2 1.8-1.97 1.25 0.03-0.55-0.86 0.24-1.98 1.75-1.11 1.51-2.82 2.77-3.78 2.79-0.96 0.02-3.15 1.26-4.86 2.75-1.71 1.49-3.62 3.72-4.25 4.96-0.63 1.24-1.37 2.02-1.64 1.75-0.27-0.27-1.6 0.63-2.95 2-1.35 1.38-3.04 2.49-3.75 2.47-0.72-0.01-2.3 1-3.52 2.25-1.94 1.99-2.1 2.76-1.25 6.03 0.76 2.93 2.54 5.01 8.13 9.5 3.93 3.16 11.69 9.25 17.25 13.52 5.55 4.28 11.22 8.14 12.59 8.58 1.38 0.44 3.85 0.69 5.5 0.56 1.65-0.14 3.34-0.28 3.75-0.33 0.41-0.04 0.56-0.64 0.32-1.33-0.23-0.69 1.67-3.05 4.24-5.25 2.57-2.2 4.9-4.01 5.18-4.03 0.28-0.02 2.11-1.6 4.06-3.5 1.95-1.91 6.23-5.74 9.5-8.51 3.27-2.78 7.94-6.6 10.36-8.5 2.43-1.9 6.26-5.47 8.5-7.93 2.25-2.45 5.1-5.49 6.34-6.75 1.24-1.25 2.48-3.18 2.75-4.28 0.27-1.1 1-1.89 1.61-1.75 0.62 0.14 1.31-0.87 1.55-2.25 0.24-1.37 1.04-3.17 1.77-4 0.74-0.83 1.62-2.96 1.96-4.75 0.33-1.79 1.06-3.25 1.61-3.25 0.55 0 0.95-0.34 0.88-0.75-0.06-0.41-0.04-0.98 0.05-1.25 0.1-0.27 0.37-3.2 0.6-6.5 0.24-3.3 0.69-13.88 1-23.5 0.31-9.63 0.77-18.06 1.02-18.75 0.25-0.69-0.45-2.15-1.55-3.25-1.1-1.1-2.59-2-3.3-2-0.72 0-1.84 0.9-2.5 2zm-263.2 259.75c0 0.69-0.56 1.59-1.25 2-0.69 0.41-3.27 3.03-5.75 5.82-2.48 2.79-7.2 8.16-10.5 11.94-3.3 3.77-9.19 10.27-13.1 14.43-3.9 4.16-10.88 11.8-15.5 16.98-4.62 5.18-14.03 15.18-20.9 22.22-6.88 7.04-13.29 13.71-14.25 14.83-0.96 1.12-1.76 3.49-1.76 5.28-0.01 1.79 0.95 6.4 2.14 10.25 1.18 3.85 2.48 7.45 2.89 8 0.41 0.55 1.07 2.58 1.47 4.5 0.4 1.92 1.29 4.85 2 6.5 0.7 1.65 2.49 6.6 3.98 11 1.48 4.4 3.08 8.9 3.55 10 0.46 1.1 1.42 3.8 2.12 6 0.7 2.2 1.33 4.23 1.4 4.5 0.07 0.27 0.66 1.85 1.31 3.5 0.66 1.65 1.59 3.9 2.08 5 0.48 1.1 2.11 5.38 3.62 9.5 1.51 4.13 3.52 9.75 4.48 12.5 0.95 2.75 2.91 7.59 4.35 10.75 2.27 4.98 3.12 5.89 6.37 6.8 2.3 0.64 13.23 0.93 28.25 0.75l24.5-0.3c0.39-5.04-0.21-8.19-1.07-10.25-0.87-2.06-2.21-5.1-2.98-6.75-0.77-1.65-1.98-5.14-2.68-7.76-0.7-2.62-1.61-4.76-2.02-4.75-0.41 0.01-0.75-0.78-0.76-1.74 0-0.96-0.69-3.1-1.53-4.75-0.84-1.65-1.51-3.56-1.49-4.25 0.02-0.69-0.37-2.04-0.85-3-0.49-0.96-1.33-2.87-1.88-4.25-0.54-1.37-1.59-3.85-2.32-5.5-0.74-1.65-1.38-3.45-1.44-4-0.06-0.55-1.05-3.02-2.21-5.5-1.15-2.48-2.48-5.8-2.93-7.38-0.46-1.59-1.18-3.05-1.59-3.25-0.41-0.2-0.75-1.04-0.75-1.87 0-0.83-0.9-3.52-2-6-1.1-2.48-1.91-4.84-1.79-5.25 0.12-0.41-0.5-2.33-1.36-4.25-0.87-1.92-2.37-5.3-3.35-7.5-1.7-3.85-1.7-4.15 0.12-8.14 1.16-2.55 9.73-12.32 22.38-25.5 11.27-11.75 24.55-25.62 29.5-30.84 4.95-5.21 11.02-11.57 13.5-14.13 2.48-2.56 7.07-7.3 10.21-10.52 3.14-3.23 5.73-6.21 5.75-6.62 0.02-0.41 0.71-1.42 1.54-2.25 0.83-0.83 1.52-1.84 1.54-2.25 0.03-0.41-0.76-1.75-1.75-2.97-1.76-2.19-2.2-2.23-30.54-2.5-22.48-0.22-28.75-0.01-28.75 0.97z"></path>
</svg>